<svg width="12" height="17" viewBox="0 0 12 17" fill="none" xmlns="http://www.w3.org/2000/svg">
<g id="fa6-solid:fire-flame-curved" clip-path="url(#clip0_2_3029)">
<path id="Vector" d="M7.16478 1.64172L6.67946 0.995634C6.55813 0.831837 6.364 0.734772 6.16077 0.734772C5.80587 0.734772 5.51468 1.02597 5.51468 1.38086V2.05425C5.51468 2.45161 5.35088 2.83381 5.06272 3.1068L2.49352 5.5577C1.01328 6.97121 0.176089 8.93071 0.176089 10.9782C0.176089 13.8992 2.54205 16.2652 5.46311 16.2652H6C9.21529 16.2652 11.8239 13.6566 11.8239 10.4413V10.326C11.8239 8.84578 11.2355 7.4262 10.189 6.37972L10.0828 6.27355C9.95541 6.14616 9.77948 6.07336 9.59748 6.07336C9.21832 6.07336 8.91196 6.37972 8.91196 6.75888V9.47064C8.91196 10.5414 8.0414 11.4119 6.97065 11.4119C5.8999 11.4119 5.02935 10.5414 5.02935 9.47064V9.35234C5.02935 8.80635 5.24775 8.28159 5.63297 7.89636L6.80382 6.72551C7.53181 5.99753 7.94131 5.00564 7.94131 3.97432C7.94131 3.1341 7.66831 2.31208 7.16478 1.64172Z" fill="#BF4008"/>
</g>
<defs>
<clipPath id="clip0_2_3029">
<rect width="11.6478" height="15.5304" fill="white" transform="matrix(-1 0 0 1 11.8239 0.734772)"/>
</clipPath>
</defs>
</svg>
