<svg width="16" height="20" viewBox="0 0 16 20" fill="none" xmlns="http://www.w3.org/2000/svg">
<g id="fa6-solid:fire-flame-curved" clip-path="url(#clip0_2_3015)">
<path id="Vector" d="M9.35686 1.2291L8.73619 0.402833C8.58102 0.193356 8.33275 0.0692215 8.07284 0.0692215C7.61898 0.0692215 7.24657 0.441625 7.24657 0.895491V1.75667C7.24657 2.26485 7.0371 2.75363 6.66857 3.10276L3.38289 6.23715C1.48984 8.04486 0.419182 10.5508 0.419182 13.1693C0.419182 16.9049 3.44496 19.9307 7.18063 19.9307H7.86724C11.9792 19.9307 15.3153 16.5946 15.3153 12.4827V12.3352C15.3153 10.4422 14.5627 8.62673 13.2244 7.28841L13.0886 7.15264C12.9257 6.98971 12.7007 6.89661 12.468 6.89661C11.9831 6.89661 11.5913 7.28841 11.5913 7.77331V11.2413C11.5913 12.6107 10.4779 13.724 9.10859 13.724C7.73923 13.724 6.6259 12.6107 6.6259 11.2413V11.09C6.6259 10.3918 6.9052 9.72067 7.39786 9.22801L8.89523 7.73064C9.82624 6.79963 10.3499 5.53113 10.3499 4.21221C10.3499 3.13767 10.0008 2.08641 9.35686 1.2291Z" fill="white"/>
</g>
<defs>
<clipPath id="clip0_2_3015">
<rect width="14.8961" height="19.8615" fill="white" transform="matrix(-1 0 0 1 15.3153 0.0692215)"/>
</clipPath>
</defs>
</svg>
